<svg fill="none" height="24" viewBox="0 0 24 24" width="24" xmlns="http://www.w3.org/2000/svg"><g fill="#fff"><path clip-rule="evenodd" d="m4.91167 3.49746-1.20456-1.20457c-.39053-.39052-1.02369-.39052-1.41422 0-.39052.39053-.39052 1.02369 0 1.41422l2.80181 2.80181c-1.41169 1.26949-2.46057 2.95428-2.94654 4.89818-.09732.3893-.09732.7965 0 1.1858 1.0883 4.3532 4.99964 7.4071 9.48684 7.4071h.7299c1.7699 0 3.4503-.4751 4.9031-1.3178l3.0249 3.0249c.3905.3905 1.0237.3905 1.4142 0 .3265-.3265.38-.8225.1607-1.2046l-16.79546-16.79539c-.06407-.06407-.11762-.13467-.16067-.20965zm2.55107 8.50254c0-.8909.25675-1.7218.7003-2.42275l1.48044 1.48045c-.1166.2913-.18074.6093-.18074.9423 0 1.4013 1.13596 2.5372 2.53726 2.5372.3329 0 .6509-.0641.9423-.1807l1.4804 1.4804c-.701.4436-1.5319.7003-2.4227.7003-2.50587 0-4.53726-2.0314-4.53726-4.5372z" fill-rule="evenodd"/><path d="m20.2287 16.035c.745-1.007 1.3047-2.1689 1.623-3.4421.0973-.3893.0973-.7965 0-1.1858-1.0883-4.35321-4.9996-7.4071-9.4868-7.4071h-.7299c-1.0322 0-2.03398.1616-2.97789.46344l3.01129 3.01126c.1095-.00791.22-.01193.3316-.01193 2.5058 0 4.5372 2.03139 4.5372 4.53723 0 .1115-.004.2221-.0119.3316z"/></g></svg>